<svg width="40" height="53" viewBox="0 0 40 53" fill="none" xmlns="http://www.w3.org/2000/svg">
<circle cx="20" cy="29" r="20" fill="#F6F6F6"/>
<mask id="mask0_1512_123" style="mask-type:alpha" maskUnits="userSpaceOnUse" x="0" y="9" width="40" height="40">
<circle cx="20" cy="29" r="20" fill="#F6F6F6"/>
</mask>
<g mask="url(#mask0_1512_123)">
<rect opacity="0.14" x="-4" y="34" width="24" height="9" fill="url(#paint0_linear_1512_123)"/>
</g>
<path d="M25.936 1.45753C23.7775 0.127295 21.0793 2.01179 20 3.12031L25.3964 7C26.4757 5.70677 29.1473 3.43648 25.936 1.45753Z" fill="#C28C01"/>
<path d="M34.5003 28.5917C34.5003 21.326 27.106 15.9481 23.6794 14.1673C23.6794 14.1673 27.4667 5.08519 27.4667 4.01671C27.4667 2.94823 25.4107 4.55087 23.6794 4.55087C21.5152 4.55087 19.351 -1.32577 15.0227 0.27695C11.56 1.55913 14.662 10.0714 16.6458 14.1672C13.0389 15.4138 5.82495 20.5781 5.82495 29.1259C5.82495 37.6738 10.6943 41.4134 13.3996 42.4819C13.3996 42.4819 15.3373 43.5 20 43.5C24.6627 43.5 26.3846 42.4819 26.3846 42.4819C29.0898 40.8792 34.5003 35.8573 34.5003 28.5917Z" fill="#FFCA40"/>
<mask id="mask1_1512_123" style="mask-type:alpha" maskUnits="userSpaceOnUse" x="5" y="0" width="30" height="44">
<path d="M34.5003 28.5917C34.5003 21.326 27.106 15.9481 23.6794 14.1673C23.6794 14.1673 27.4667 5.08519 27.4667 4.01671C27.4667 2.94823 25.4107 4.55087 23.6794 4.55087C21.5152 4.55087 19.351 -1.32577 15.0227 0.27695C11.56 1.55913 14.662 10.0714 16.6458 14.1672C13.0389 15.4138 5.82495 20.5781 5.82495 29.1259C5.82495 37.6738 10.6943 41.4134 13.3996 42.4819C13.3996 42.4819 14.8373 43.5 19.5 43.5C24.1627 43.5 26.3846 42.4819 26.3846 42.4819C29.0898 40.8792 34.5003 35.8573 34.5003 28.5917Z" fill="#FFCA40"/>
</mask>
<g mask="url(#mask1_1512_123)">
<path d="M10.6043 29.2064C11.0291 37.2779 15.0295 41.7739 16.9766 43.013L7.41819 42.482L1.0459 27.6133L10.6043 13.2756V-0.530988L17.5076 -1.06201C16.7996 0.177045 15.8084 1.69931 15.3835 4.24823C14.9587 6.79714 16.4456 12.5676 17.5076 14.3377C15.0295 15.9308 10.1795 21.1348 10.6043 29.2064Z" fill="#FFB801"/>
</g>
<path d="M15.3835 14.0422C16.0916 14.1995 17.5076 14.8682 19.6317 14.8682C21.7558 14.8682 23.5259 14.0422 23.8799 13.8062" stroke="#C28C01" stroke-width="1.5" stroke-linecap="round"/>
<path d="M22.6531 31.3701C22.6531 30.9209 22.4944 30.5425 22.177 30.2349C21.8645 29.9272 21.3347 29.6489 20.5876 29.3999C19.5476 29.0825 18.7883 28.6699 18.3098 28.1621C17.8362 27.6494 17.5994 27 17.5994 26.2139C17.5994 25.4131 17.8313 24.7563 18.2952 24.2437C18.7639 23.731 19.406 23.4258 20.2214 23.3281V21.7241H21.3127V23.3354C22.1331 23.4478 22.7703 23.792 23.2244 24.3682C23.6833 24.9443 23.9128 25.7329 23.9128 26.7339H22.5652C22.5652 26.0454 22.4016 25.4985 22.0745 25.0933C21.7473 24.688 21.3054 24.4854 20.7488 24.4854C20.1677 24.4854 19.7234 24.6367 19.4158 24.9395C19.1082 25.2373 18.9543 25.6548 18.9543 26.1919C18.9543 26.6899 19.1155 27.0879 19.4377 27.3857C19.7649 27.6787 20.2996 27.9473 21.0417 28.1914C21.7888 28.4307 22.3699 28.6968 22.7849 28.9897C23.2048 29.2778 23.5125 29.6147 23.7078 30.0005C23.908 30.3862 24.0081 30.8379 24.0081 31.3555C24.0081 32.1807 23.759 32.8447 23.261 33.3477C22.7678 33.8506 22.0745 34.1484 21.1809 34.2412V35.6401H20.0969V34.2412C19.1887 34.1582 18.4758 33.8359 17.9583 33.2744C17.4456 32.708 17.1892 31.9414 17.1892 30.9746H18.5442C18.5442 31.6533 18.7224 32.1758 19.0789 32.542C19.4353 32.9082 19.9407 33.0913 20.595 33.0913C21.2346 33.0913 21.7375 32.9375 22.1038 32.6299C22.47 32.3223 22.6531 31.9023 22.6531 31.3701Z" fill="white"/>
<path fill-rule="evenodd" clip-rule="evenodd" d="M35.5 45C37.433 45 39 44.5523 39 44V43H35.5H32V44C32 44.5523 33.567 45 35.5 45Z" fill="#FFB801"/>
<mask id="mask2_1512_123" style="mask-type:alpha" maskUnits="userSpaceOnUse" x="32" y="43" width="7" height="2">
<path fill-rule="evenodd" clip-rule="evenodd" d="M35.5 45C37.433 45 39 44.5523 39 44V43H35.5H32V44C32 44.5523 33.567 45 35.5 45Z" fill="#FFB801"/>
</mask>
<g mask="url(#mask2_1512_123)">
<path opacity="0.54" d="M35.5 44V45" stroke="white" stroke-width="0.5"/>
<path opacity="0.54" d="M37 43V45" stroke="white" stroke-width="0.25"/>
<path opacity="0.54" d="M38 43V45" stroke="white" stroke-width="0.25"/>
<path opacity="0.54" d="M38.6499 43V45" stroke="white" stroke-width="0.25"/>
</g>
<ellipse cx="35.5" cy="43" rx="3.5" ry="1" fill="#FEE381"/>
<path fill-rule="evenodd" clip-rule="evenodd" d="M25.781 52C27.714 52 29.281 51.5523 29.281 51V50H25.781H22.281V51C22.281 51.5523 23.848 52 25.781 52Z" fill="#FFB801"/>
<mask id="mask3_1512_123" style="mask-type:alpha" maskUnits="userSpaceOnUse" x="22" y="50" width="8" height="2">
<path fill-rule="evenodd" clip-rule="evenodd" d="M25.781 52C27.714 52 29.281 51.5523 29.281 51V50H25.781H22.281V51C22.281 51.5523 23.848 52 25.781 52Z" fill="#FFB801"/>
</mask>
<g mask="url(#mask3_1512_123)">
<path opacity="0.54" d="M25.781 51V52" stroke="white" stroke-width="0.5"/>
<path opacity="0.54" d="M27.281 50V52" stroke="white" stroke-width="0.25"/>
<path opacity="0.54" d="M28.281 50V52" stroke="white" stroke-width="0.25"/>
<path opacity="0.54" d="M28.9309 50V52" stroke="white" stroke-width="0.25"/>
</g>
<ellipse cx="25.781" cy="50" rx="3.5" ry="1" fill="#FEE381"/>
<path fill-rule="evenodd" clip-rule="evenodd" d="M22.5311 50.7994C24.2051 49.8329 25.3383 48.6617 25.0622 48.1834L24.5622 47.3174L21.5311 49.0674L18.5 50.8174L19 51.6834C19.2761 52.1617 20.8571 51.7659 22.5311 50.7994Z" fill="#FFB801"/>
<mask id="mask4_1512_123" style="mask-type:alpha" maskUnits="userSpaceOnUse" x="18" y="47" width="8" height="5">
<path fill-rule="evenodd" clip-rule="evenodd" d="M22.5311 50.7994C24.2051 49.8329 25.3383 48.6617 25.0622 48.1834L24.5622 47.3174L21.5311 49.0674L18.5 50.8174L19 51.6834C19.2761 52.1617 20.8571 51.7659 22.5311 50.7994Z" fill="#FFB801"/>
</mask>
<g mask="url(#mask4_1512_123)">
<path opacity="0.54" d="M22.031 49.9336L22.531 50.7996" stroke="white" stroke-width="0.5"/>
<path opacity="0.54" d="M22.8301 48.3174L23.8301 50.0494" stroke="white" stroke-width="0.25"/>
<path opacity="0.54" d="M23.696 47.8174L24.696 49.5494" stroke="white" stroke-width="0.25"/>
<path opacity="0.54" d="M24.259 47.4922L25.259 49.2242" stroke="white" stroke-width="0.25"/>
</g>
<ellipse cx="21.5311" cy="49.0672" rx="3.5" ry="1" transform="rotate(-30 21.5311 49.0672)" fill="#FEE381"/>
<defs>
<linearGradient id="paint0_linear_1512_123" x1="10.5" y1="38" x2="-4" y2="38" gradientUnits="userSpaceOnUse">
<stop stop-color="#2B3033"/>
<stop offset="1" stop-color="#2B3033" stop-opacity="0"/>
</linearGradient>
</defs>
</svg>
